<svg xmlns="http://www.w3.org/2000/svg" viewBox="0 0 60.76 60.76"><defs><style>.cls-1{fill:#e64c25;}.cls-2{fill:#fff;}</style></defs><title>favicon</title><g id="Слой_2" data-name="Слой 2"><g id="Layer_3" data-name="Layer 3"><circle class="cls-1" cx="30.38" cy="30.38" r="30.38"/><path class="cls-2" d="M30.61,10.55C42,10.55,48.7,19.44,48.7,30.74v1.48H18.22c.47,7.09,5.46,13,13.57,13A16.46,16.46,0,0,0,43.4,40.49l2.81,3.82c-3.74,3.74-8.81,5.77-15,5.77-11.15,0-19.18-8-19.18-19.8C12.06,19.36,19.85,10.55,30.61,10.55ZM18.22,27.94H42.93c-.08-5.62-3.82-12.55-12.39-12.55C22.51,15.38,18.53,22.17,18.22,27.94Z"/></g></g></svg>